HIERARCHY
ROOT SpineBase
{
  OFFSET 0.000000 0.000000 0.000000
  CHANNELS 6 Xposition Yposition Zposition Zrotation Xrotation Yrotation
  JOINT SpineMid
  {
    OFFSET 0.000000 34.158066 0.000000
    CHANNELS 3 Zrotation Xrotation Yrotation
    JOINT SpineShoulder
    {
      OFFSET 0.181512 25.295328 -0.762145
      CHANNELS 3 Zrotation Xrotation Yrotation
      JOINT Neck
      {
        OFFSET 0.158850 8.335551 -0.527890
        CHANNELS 3 Zrotation Xrotation Yrotation
        JOINT Head
        {
          OFFSET 3.092968 12.830467 6.668975
          CHANNELS 3 Zrotation Xrotation Yrotation
          End Site
          {
            OFFSET 0 0 0
          }
        }
      }
      JOINT ShoulderLeft
      {
        OFFSET 0.477190 -4.496952 -16.151997
        CHANNELS 3 Zrotation Xrotation Yrotation
        JOINT ElbowLeft
        {
          OFFSET 0.124652 -25.784826 -6.765727
          CHANNELS 3 Zrotation Xrotation Yrotation
          JOINT WristLeft
          {
            OFFSET 6.875353 -24.451799 0.000352
            CHANNELS 3 Zrotation Xrotation Yrotation
            JOINT HandLeft
            {
              OFFSET -0.612445 -8.173316 2.385689
              CHANNELS 3 Zrotation Xrotation Yrotation
              JOINT HandTipLeft
              {
                OFFSET 3.616505 -5.476638 1.148572
                CHANNELS 3 Zrotation Xrotation Yrotation
                End Site
                {
                  OFFSET 0 0 0
                }
              }
              JOINT ThumbLeft
              {
                OFFSET -4.599967 -1.557867 1.075012
                CHANNELS 3 Zrotation Xrotation Yrotation
                End Site
                {
                  OFFSET 0 0 0
                }
              }
            }
          }
        }
      }
      JOINT ShoulderRight
      {
        OFFSET 3.770327 -4.702039 16.529755
        CHANNELS 3 Zrotation Xrotation Yrotation
        JOINT ElbowRight
        {
          OFFSET -2.862959 -28.802871 2.185303
          CHANNELS 3 Zrotation Xrotation Yrotation
          JOINT WristRight
          {
            OFFSET 9.573370 -27.733296 6.232833
            CHANNELS 3 Zrotation Xrotation Yrotation
            JOINT HandRight
            {
              OFFSET -5.312759 -7.390427 0.902645
              CHANNELS 3 Zrotation Xrotation Yrotation
              JOINT HandTipRight
              {
                OFFSET -0.048970 -1.654689 -1.614397
                CHANNELS 3 Zrotation Xrotation Yrotation
                End Site
                {
                  OFFSET 0 0 0
                }
              }
              JOINT ThumbRight
              {
                OFFSET 1.271859 1.214626 -1.744219
                CHANNELS 3 Zrotation Xrotation Yrotation
                End Site
                {
                  OFFSET 0 0 0
                }
              }
            }
          }
        }
      }
    }
  }
  JOINT HipLeft
  {
    OFFSET 0.005410 1.470255 -7.966961
    CHANNELS 3 Zrotation Xrotation Yrotation
    JOINT KneeLeft
    {
      OFFSET -5.004404 -33.594328 -5.928376
      CHANNELS 3 Zrotation Xrotation Yrotation
      JOINT AnkleLeft
      {
        OFFSET -10.013175 -34.262830 -1.937483
        CHANNELS 3 Zrotation Xrotation Yrotation
        JOINT FootLeft
        {
          OFFSET 11.144060 -4.387288 -4.013037
          CHANNELS 3 Zrotation Xrotation Yrotation
          End Site
          {
            OFFSET 0 0 0
          }
        }
      }
    }
  }
  JOINT HipRight
  {
    OFFSET 1.877128 -0.199775 1.142760
    CHANNELS 3 Zrotation Xrotation Yrotation
    JOINT KneeRight
    {
      OFFSET -0.639232 -33.166248 -12.674286
      CHANNELS 3 Zrotation Xrotation Yrotation
      JOINT AnkleRight
      {
        OFFSET -15.130315 -38.156810 19.255772
        CHANNELS 3 Zrotation Xrotation Yrotation
        JOINT FootRight
        {
          OFFSET 12.614068 -3.732139 -4.529211
          CHANNELS 3 Zrotation Xrotation Yrotation
          End Site
          {
            OFFSET 0 0 0
          }
        }
      }
    }
  }
}
MOTION
Frames: 8
Frame Time: 0.033333
-92.243357 82.338161 331.135142 -0.000000 0.000000 -78.389372 0.000000 0.000000 78.389372 -0.000000 0.000000 0.000000 -0.000000 0.000000 0.000000 0.000000 0.000000 0.000000 -0.000000 0.000000 0.000000 -0.000000 0.000000 0.000000 -0.000000 0.000000 0.000000 -0.000000 0.000000 0.000000 0.000000 0.000000 0.000000 0.000000 0.000000 0.000000 -0.000000 0.000000 0.000000 -0.000000 0.000000 0.000000 -0.000000 0.000000 0.000000 -0.000000 0.000000 0.000000 0.000000 0.000000 0.000000 0.000000 0.000000 0.000000 0.000000 0.000000 78.389372 -0.000000 0.000000 0.000000 -0.000000 0.000000 0.000000 0.000000 0.000000 0.000000 0.000000 0.000000 78.389372 -0.000000 0.000000 0.000000 -0.000000 0.000000 0.000000 0.000000 0.000000 0.000000
-92.232272 82.380662 331.184957 -0.009555 0.008891 -78.461153 0.010623 0.007584 78.461153 -0.000000 0.000000 0.000000 -0.000000 0.000000 0.000000 0.000000 0.000000 0.000000 -0.000000 0.000000 0.000000 -0.000000 0.000000 0.000000 -0.623389 0.685935 -0.229937 -2.177726 1.734014 1.303065 0.000000 0.000000 0.000000 0.000000 0.000000 0.000000 -0.000000 0.000000 0.000000 -0.000000 0.000000 0.000000 -0.000000 0.000000 0.000000 -0.000000 0.000000 0.000000 0.000000 0.000000 0.000000 0.000000 0.000000 0.000000 0.010623 0.007584 78.461153 -0.000000 0.000000 0.000000 -0.000000 0.000000 0.000000 0.000000 0.000000 0.000000 2.744438 -0.684567 78.582895 0.082683 4.108456 -0.649393 -10.003250 -4.706300 1.342689 0.000000 0.000000 0.000000
-92.228838 82.414485 331.233743 -0.023656 0.019857 -78.516530 0.024169 0.019229 78.516530 -0.000000 0.000000 0.000000 -0.000000 0.000000 0.000000 0.000000 0.000000 0.000000 -0.000000 0.000000 0.000000 -0.000000 0.000000 0.000000 -0.993644 1.292333 -0.376668 -4.185339 3.094413 2.390917 0.000000 0.000000 0.000000 0.000000 0.000000 0.000000 -0.000000 0.000000 0.000000 -0.000000 0.000000 0.000000 -0.000000 0.000000 0.000000 -0.000000 0.000000 0.000000 0.000000 0.000000 0.000000 0.000000 0.000000 0.000000 0.024169 0.019229 78.516530 -0.000000 0.000000 0.000000 -0.000000 0.000000 0.000000 0.000000 0.000000 0.000000 5.123387 -1.239491 78.759521 0.158653 7.765486 -1.244929 -22.249737 -10.307858 1.364532 0.000000 0.000000 0.000000
-92.233055 82.439629 331.281500 -0.042301 0.032894 -78.555992 0.040633 0.034934 78.555992 -0.000000 0.000000 0.000000 -0.000000 0.000000 0.000000 0.000000 0.000000 0.000000 -0.000000 0.000000 0.000000 -0.000000 0.000000 0.000000 -1.117367 1.820536 -0.446573 -5.942132 4.074447 3.215156 0.000000 0.000000 0.000000 0.000000 0.000000 0.000000 -0.000000 0.000000 0.000000 -0.000000 0.000000 0.000000 -0.000000 0.000000 0.000000 -0.000000 0.000000 0.000000 0.000000 0.000000 0.000000 0.000000 0.000000 0.000000 0.040633 0.034934 78.555992 -0.000000 0.000000 0.000000 -0.000000 0.000000 0.000000 0.000000 0.000000 0.000000 7.132680 -1.669051 78.906282 0.222736 10.947454 -1.779003 -35.631661 -15.893425 -0.433706 0.000000 0.000000 0.000000
-92.244924 82.456096 331.328227 -0.065485 0.047997 -78.579894 0.060012 0.054685 78.579893 -0.000000 0.000000 0.000000 -0.000000 0.000000 0.000000 0.000000 0.000000 0.000000 -0.000000 0.000000 0.000000 -0.000000 0.000000 0.000000 -0.999226 2.272519 -0.444437 -7.401415 4.685444 3.744211 0.000000 0.000000 0.000000 0.000000 0.000000 0.000000 -0.000000 0.000000 0.000000 -0.000000 0.000000 0.000000 -0.000000 0.000000 0.000000 -0.000000 0.000000 0.000000 0.000000 0.000000 0.000000 0.000000 0.000000 0.000000 0.060012 0.054685 78.579893 -0.000000 0.000000 0.000000 -0.000000 0.000000 0.000000 0.000000 0.000000 0.000000 8.772304 -1.978027 79.013001 0.269372 13.636558 -2.243566 -48.124792 -20.293039 -3.699325 0.000000 0.000000 0.000000
-92.264445 82.463884 331.373925 -0.093195 0.065158 -78.588464 0.082309 0.078461 78.588461 -0.000000 0.000000 0.000000 -0.000000 0.000000 0.000000 0.000000 0.000000 0.000000 -0.000000 0.000000 0.000000 -0.000000 0.000000 0.000000 -0.641979 2.650665 -0.373555 -8.546018 4.946641 3.963445 0.000000 0.000000 0.000000 0.000000 0.000000 0.000000 -0.000000 0.000000 0.000000 -0.000000 0.000000 0.000000 -0.000000 0.000000 0.000000 -0.351917 -0.864343 0.368956 0.000000 0.000000 0.000000 0.000000 0.000000 0.000000 0.082309 0.078461 78.588461 -0.000000 0.000000 0.000000 -0.000000 0.000000 0.000000 0.000000 0.000000 0.000000 10.043835 -2.170554 79.072013 0.292576 15.818859 -2.630574 -57.928798 -23.033560 -7.384621 0.000000 0.000000 0.000000
-92.314601 82.445947 331.404198 -0.157677 0.081223 -78.586846 0.110819 0.138486 78.586824 -0.000000 0.000000 0.000000 -0.000000 0.000000 0.000000 0.000000 0.000000 0.000000 -0.000000 0.000000 0.000000 -0.000000 0.000000 0.000000 -0.163131 3.178709 -0.283604 -8.907296 3.884017 3.342399 0.000000 0.000000 0.000000 0.000000 0.000000 0.000000 -0.000000 0.000000 0.000000 -0.000000 0.000000 0.000000 -0.000000 0.000000 0.000000 -0.449013 -0.963076 0.466579 0.000000 0.000000 0.000000 0.000000 0.000000 0.000000 0.110819 0.138486 78.586824 0.900552 0.116812 -0.086174 -0.900378 -0.118151 0.084327 0.000000 0.000000 0.000000 11.040363 -2.218578 79.074187 0.314874 17.675460 -2.960734 -65.451155 -24.442530 -11.579782 0.000000 0.000000 0.000000
-92.353374 82.424617 331.455271 -0.202816 0.085088 -78.572541 0.123585 0.181938 78.572495 -0.000000 0.000000 0.000000 -0.000000 0.000000 0.000000 0.000000 0.000000 0.000000 -0.000000 0.000000 0.000000 -0.000000 0.000000 0.000000 0.769147 3.653451 -0.074609 -10.152748 4.164166 3.502056 0.000000 0.000000 0.000000 0.000000 0.000000 0.000000 -0.000000 0.000000 0.000000 -0.000000 0.000000 0.000000 -0.000000 0.000000 0.000000 -0.539431 -1.162371 0.560696 0.000000 0.000000 0.000000 0.000000 0.000000 0.000000 0.123585 0.181938 78.572495 1.115048 0.139431 -0.105453 -1.114793 -0.141456 0.102720 0.000000 0.000000 0.000000 11.443392 -2.119102 79.006739 0.267479 18.710667 -3.158620 -66.930797 -24.467191 -14.364380 0.000000 0.000000 0.000000
